<mxfile host="app.diagrams.net" modified="2020-07-01T19:48:27.254Z" agent="5.0 (Windows NT 10.0; Win64; x64) AppleWebKit/537.36 (KHTML, like Gecko) Chrome/83.0.4103.116 Safari/537.36" etag="mFAIyGYK-KbGu2exeCl7" version="13.3.6" type="github">
  <diagram id="ee5q7pHl0pdBWp1s6GED" name="Page-1">
    <mxGraphModel dx="2234" dy="965" grid="1" gridSize="10" guides="1" tooltips="1" connect="1" arrows="1" fold="1" page="0" pageScale="1" pageWidth="850" pageHeight="1100" background="none" math="0" shadow="1">
      <root>
        <mxCell id="0" />
        <mxCell id="1" parent="0" />
        <mxCell id="J2sVRKakkmMQEyNmL68_-4" value="&lt;font style=&quot;font-size: 24px&quot;&gt;GET&lt;/font&gt;" style="rounded=1;whiteSpace=wrap;html=1;fillColor=#6a00ff;strokeColor=#3700CC;fontColor=#FFFFFF;" parent="1" vertex="1">
          <mxGeometry x="314.38" y="730" width="245" height="70" as="geometry" />
        </mxCell>
        <mxCell id="J2sVRKakkmMQEyNmL68_-9" value="https://files.mlspp.gov.az/api" style="text;html=1;strokeColor=none;fillColor=none;align=center;verticalAlign=middle;whiteSpace=wrap;rounded=0;fontSize=24;" parent="1" vertex="1">
          <mxGeometry x="350" y="110" width="130" height="20" as="geometry" />
        </mxCell>
        <mxCell id="J2sVRKakkmMQEyNmL68_-12" value="&lt;font style=&quot;font-size: 24px&quot;&gt;POST&lt;/font&gt;" style="rounded=1;whiteSpace=wrap;html=1;fillColor=#1ba1e2;strokeColor=#006EAF;fontColor=#ffffff;" parent="1" vertex="1">
          <mxGeometry x="314.38" y="930" width="245" height="70" as="geometry" />
        </mxCell>
        <mxCell id="J2sVRKakkmMQEyNmL68_-13" value="&lt;font style=&quot;font-size: 24px&quot;&gt;PUT&lt;/font&gt;" style="rounded=1;whiteSpace=wrap;html=1;fillColor=#f0a30a;strokeColor=#BD7000;fontColor=#ffffff;" parent="1" vertex="1">
          <mxGeometry x="314.38" y="1100" width="245" height="70" as="geometry" />
        </mxCell>
        <mxCell id="J2sVRKakkmMQEyNmL68_-14" value="&lt;font style=&quot;font-size: 24px&quot;&gt;DELETE&lt;/font&gt;" style="rounded=1;whiteSpace=wrap;html=1;fillColor=#a20025;strokeColor=#6F0000;fontColor=#ffffff;" parent="1" vertex="1">
          <mxGeometry x="314.38" y="1270" width="245" height="70" as="geometry" />
        </mxCell>
        <mxCell id="J2sVRKakkmMQEyNmL68_-18" value="subfolder, filename" style="shape=parallelogram;perimeter=parallelogramPerimeter;whiteSpace=wrap;html=1;fontSize=24;fillColor=#f5f5f5;strokeColor=#666666;fontColor=#333333;" parent="1" vertex="1">
          <mxGeometry x="-245.62" y="730" width="410" height="60" as="geometry" />
        </mxCell>
        <mxCell id="J2sVRKakkmMQEyNmL68_-19" value="&lt;font color=&quot;#ff0000&quot;&gt;file&lt;/font&gt;" style="shape=parallelogram;perimeter=parallelogramPerimeter;whiteSpace=wrap;html=1;fillColor=#60a917;fontSize=24;strokeColor=#2D7600;fontColor=#ffffff;" parent="1" vertex="1">
          <mxGeometry x="714.38" y="730" width="360" height="60" as="geometry" />
        </mxCell>
        <mxCell id="J2sVRKakkmMQEyNmL68_-20" value="" style="shape=flexArrow;endArrow=classic;html=1;fontSize=24;fillColor=#a0522d;strokeColor=#6D1F00;" parent="1" edge="1">
          <mxGeometry width="50" height="50" relative="1" as="geometry">
            <mxPoint x="584.38" y="764.5" as="sourcePoint" />
            <mxPoint x="704.38" y="764.5" as="targetPoint" />
          </mxGeometry>
        </mxCell>
        <mxCell id="J2sVRKakkmMQEyNmL68_-21" value="" style="shape=flexArrow;endArrow=classic;html=1;fontSize=24;fillColor=#a0522d;strokeColor=#6D1F00;" parent="1" edge="1">
          <mxGeometry width="50" height="50" relative="1" as="geometry">
            <mxPoint x="174.38" y="764.5" as="sourcePoint" />
            <mxPoint x="294.38" y="764.5" as="targetPoint" />
          </mxGeometry>
        </mxCell>
        <mxCell id="J2sVRKakkmMQEyNmL68_-23" value="KULPIN API" style="rounded=1;whiteSpace=wrap;html=1;fillColor=#a0522d;fontSize=48;strokeColor=#6D1F00;fontColor=#ffffff;" parent="1" vertex="1">
          <mxGeometry x="250" y="30" width="337.5" height="60" as="geometry" />
        </mxCell>
        <mxCell id="J2sVRKakkmMQEyNmL68_-24" value="subfolder, filename, &lt;font color=&quot;#ff0000&quot;&gt;file&lt;/font&gt;" style="shape=parallelogram;perimeter=parallelogramPerimeter;whiteSpace=wrap;html=1;fontSize=24;fillColor=#eeeeee;strokeColor=#36393d;" parent="1" vertex="1">
          <mxGeometry x="-245.62" y="930" width="410" height="60" as="geometry" />
        </mxCell>
        <mxCell id="J2sVRKakkmMQEyNmL68_-25" value="" style="shape=flexArrow;endArrow=classic;html=1;fontSize=24;fillColor=#a0522d;strokeColor=#6D1F00;" parent="1" edge="1">
          <mxGeometry width="50" height="50" relative="1" as="geometry">
            <mxPoint x="174.38" y="964.5" as="sourcePoint" />
            <mxPoint x="294.38" y="964.5" as="targetPoint" />
          </mxGeometry>
        </mxCell>
        <mxCell id="J2sVRKakkmMQEyNmL68_-28" value="subfolder, filename, &lt;font color=&quot;#ff0000&quot;&gt;file&lt;/font&gt;" style="shape=parallelogram;perimeter=parallelogramPerimeter;whiteSpace=wrap;html=1;fontSize=24;fillColor=#eeeeee;strokeColor=#36393d;" parent="1" vertex="1">
          <mxGeometry x="-245.62" y="1100" width="410" height="60" as="geometry" />
        </mxCell>
        <mxCell id="J2sVRKakkmMQEyNmL68_-29" value="" style="shape=flexArrow;endArrow=classic;html=1;fontSize=24;fillColor=#a0522d;strokeColor=#6D1F00;" parent="1" edge="1">
          <mxGeometry width="50" height="50" relative="1" as="geometry">
            <mxPoint x="174.38" y="1134.5" as="sourcePoint" />
            <mxPoint x="294.38" y="1134.5" as="targetPoint" />
          </mxGeometry>
        </mxCell>
        <mxCell id="J2sVRKakkmMQEyNmL68_-30" value="filename" style="shape=parallelogram;perimeter=parallelogramPerimeter;whiteSpace=wrap;html=1;fillColor=#60a917;fontSize=24;strokeColor=#2D7600;fontColor=#ffffff;" parent="1" vertex="1">
          <mxGeometry x="721.88" y="1100" width="352.5" height="60" as="geometry" />
        </mxCell>
        <mxCell id="J2sVRKakkmMQEyNmL68_-31" value="" style="shape=flexArrow;endArrow=classic;html=1;fontSize=24;fillColor=#a0522d;strokeColor=#6D1F00;" parent="1" edge="1">
          <mxGeometry width="50" height="50" relative="1" as="geometry">
            <mxPoint x="591.88" y="1134.5" as="sourcePoint" />
            <mxPoint x="711.88" y="1134.5" as="targetPoint" />
          </mxGeometry>
        </mxCell>
        <mxCell id="J2sVRKakkmMQEyNmL68_-32" value="subfolder, filename" style="shape=parallelogram;perimeter=parallelogramPerimeter;whiteSpace=wrap;html=1;fontSize=24;fillColor=#eeeeee;strokeColor=#36393d;" parent="1" vertex="1">
          <mxGeometry x="-245.62" y="1270" width="410" height="60" as="geometry" />
        </mxCell>
        <mxCell id="J2sVRKakkmMQEyNmL68_-33" value="" style="shape=flexArrow;endArrow=classic;html=1;fontSize=24;fillColor=#a0522d;strokeColor=#6D1F00;" parent="1" edge="1">
          <mxGeometry width="50" height="50" relative="1" as="geometry">
            <mxPoint x="174.38" y="1304.5" as="sourcePoint" />
            <mxPoint x="294.38" y="1304.5" as="targetPoint" />
          </mxGeometry>
        </mxCell>
        <mxCell id="J2sVRKakkmMQEyNmL68_-36" value="filename" style="shape=parallelogram;perimeter=parallelogramPerimeter;whiteSpace=wrap;html=1;fillColor=#60a917;fontSize=24;strokeColor=#2D7600;fontColor=#ffffff;" parent="1" vertex="1">
          <mxGeometry x="721.88" y="1270" width="352.5" height="60" as="geometry" />
        </mxCell>
        <mxCell id="J2sVRKakkmMQEyNmL68_-37" value="" style="shape=flexArrow;endArrow=classic;html=1;fontSize=24;fillColor=#a0522d;strokeColor=#6D1F00;" parent="1" edge="1">
          <mxGeometry width="50" height="50" relative="1" as="geometry">
            <mxPoint x="591.88" y="1304.5" as="sourcePoint" />
            <mxPoint x="711.88" y="1304.5" as="targetPoint" />
          </mxGeometry>
        </mxCell>
        <mxCell id="J2sVRKakkmMQEyNmL68_-38" value="get a file from server" style="text;html=1;strokeColor=none;fillColor=none;align=center;verticalAlign=middle;whiteSpace=wrap;rounded=0;fontSize=24;" parent="1" vertex="1">
          <mxGeometry x="304.38" y="700" width="280" height="20" as="geometry" />
        </mxCell>
        <mxCell id="J2sVRKakkmMQEyNmL68_-41" value="add a file to server&lt;br&gt;(if filename is null generate unique filename)" style="text;html=1;strokeColor=none;fillColor=none;align=center;verticalAlign=middle;whiteSpace=wrap;rounded=0;fontSize=24;" parent="1" vertex="1">
          <mxGeometry x="202.82" y="880" width="483.12" height="20" as="geometry" />
        </mxCell>
        <mxCell id="J2sVRKakkmMQEyNmL68_-42" value="update a file in server" style="text;html=1;strokeColor=none;fillColor=none;align=center;verticalAlign=middle;whiteSpace=wrap;rounded=0;fontSize=24;" parent="1" vertex="1">
          <mxGeometry x="304.38" y="1070" width="280" height="20" as="geometry" />
        </mxCell>
        <mxCell id="J2sVRKakkmMQEyNmL68_-44" value="delete a file from server" style="text;html=1;strokeColor=none;fillColor=none;align=center;verticalAlign=middle;whiteSpace=wrap;rounded=0;fontSize=24;" parent="1" vertex="1">
          <mxGeometry x="304.38" y="1240" width="280" height="20" as="geometry" />
        </mxCell>
        <mxCell id="J2sVRKakkmMQEyNmL68_-46" value="filename" style="shape=parallelogram;perimeter=parallelogramPerimeter;whiteSpace=wrap;html=1;fillColor=#60a917;fontSize=24;strokeColor=#2D7600;fontColor=#ffffff;" parent="1" vertex="1">
          <mxGeometry x="714.38" y="930" width="352.5" height="60" as="geometry" />
        </mxCell>
        <mxCell id="J2sVRKakkmMQEyNmL68_-53" value="request" style="rounded=1;whiteSpace=wrap;html=1;fontSize=18;fillColor=#eeeeee;strokeColor=#36393d;" parent="1" vertex="1">
          <mxGeometry x="-85.62" y="600" width="120" height="60" as="geometry" />
        </mxCell>
        <mxCell id="J2sVRKakkmMQEyNmL68_-55" value="response" style="rounded=1;whiteSpace=wrap;html=1;fillColor=#60a917;fontSize=18;strokeColor=#2D7600;fontColor=#ffffff;" parent="1" vertex="1">
          <mxGeometry x="838.13" y="600" width="120" height="60" as="geometry" />
        </mxCell>
        <mxCell id="J2sVRKakkmMQEyNmL68_-58" value="" style="endArrow=classic;html=1;fontSize=18;exitX=0.5;exitY=1;exitDx=0;exitDy=0;strokeWidth=10;fillColor=#eeeeee;strokeColor=#36393d;" parent="1" source="J2sVRKakkmMQEyNmL68_-53" edge="1">
          <mxGeometry width="50" height="50" relative="1" as="geometry">
            <mxPoint x="-15.620000000000001" y="710" as="sourcePoint" />
            <mxPoint x="-25.62" y="720" as="targetPoint" />
          </mxGeometry>
        </mxCell>
        <mxCell id="J2sVRKakkmMQEyNmL68_-60" value="" style="endArrow=classic;html=1;fontSize=18;exitX=0.5;exitY=1;exitDx=0;exitDy=0;strokeWidth=10;" parent="1" edge="1">
          <mxGeometry width="50" height="50" relative="1" as="geometry">
            <mxPoint x="897.5399999999995" y="660" as="sourcePoint" />
            <mxPoint x="897.5399999999995" y="720" as="targetPoint" />
          </mxGeometry>
        </mxCell>
        <mxCell id="J2sVRKakkmMQEyNmL68_-62" value="AUTHORIZATION&lt;br&gt;(username, password)" style="rounded=1;whiteSpace=wrap;html=1;fontSize=40;fillColor=#f9f7ed;strokeColor=#36393d;fontStyle=1" parent="1" vertex="1">
          <mxGeometry x="-245.62" y="190" width="1328.75" height="150" as="geometry" />
        </mxCell>
        <mxCell id="J2sVRKakkmMQEyNmL68_-63" value="rootfolder = username" style="rounded=1;whiteSpace=wrap;html=1;fontSize=40;fillColor=#f9f7ed;strokeColor=#36393d;fontStyle=1" parent="1" vertex="1">
          <mxGeometry x="-21.88" y="400" width="881.26" height="90" as="geometry" />
        </mxCell>
        <mxCell id="J2sVRKakkmMQEyNmL68_-66" value="" style="endArrow=classic;html=1;fontSize=18;exitX=0.5;exitY=1;exitDx=0;exitDy=0;strokeWidth=10;" parent="1" edge="1">
          <mxGeometry width="50" height="50" relative="1" as="geometry">
            <mxPoint x="429.9999999999991" y="340" as="sourcePoint" />
            <mxPoint x="429.9999999999991" y="400" as="targetPoint" />
          </mxGeometry>
        </mxCell>
        <mxCell id="J2sVRKakkmMQEyNmL68_-67" value="" style="endArrow=classic;html=1;fontSize=18;exitX=0.5;exitY=1;exitDx=0;exitDy=0;strokeWidth=10;" parent="1" edge="1">
          <mxGeometry width="50" height="50" relative="1" as="geometry">
            <mxPoint x="429.9999999999991" y="490" as="sourcePoint" />
            <mxPoint x="429.9999999999991" y="550" as="targetPoint" />
          </mxGeometry>
        </mxCell>
        <mxCell id="J2sVRKakkmMQEyNmL68_-68" value="" style="shape=flexArrow;endArrow=classic;html=1;fontSize=24;fillColor=#a0522d;strokeColor=#6D1F00;" parent="1" edge="1">
          <mxGeometry width="50" height="50" relative="1" as="geometry">
            <mxPoint x="587.5000000000001" y="970" as="sourcePoint" />
            <mxPoint x="707.5000000000001" y="970" as="targetPoint" />
          </mxGeometry>
        </mxCell>
      </root>
    </mxGraphModel>
  </diagram>
</mxfile>
